<?xml version="1.0" encoding="UTF-8" standalone="no"?>
<svg
   xmlns:dc="http://purl.org/dc/elements/1.1/"
   xmlns:cc="http://creativecommons.org/ns#"
   xmlns:rdf="http://www.w3.org/1999/02/22-rdf-syntax-ns#"
   xmlns:svg="http://www.w3.org/2000/svg"
   xmlns="http://www.w3.org/2000/svg"
   xmlns:sodipodi="http://sodipodi.sourceforge.net/DTD/sodipodi-0.dtd"
   xmlns:inkscape="http://www.inkscape.org/namespaces/inkscape"
   inkscape:version="1.0 (4035a4f, 2020-05-01)"
   inkscape:export-ydpi="96"
   inkscape:export-xdpi="96"
   inkscape:export-filename="/Users/ben.wildeman/code/vscode-tabulous/icons/reload-default-terminals.png"
   sodipodi:docname="reload-default-terminals.svg"
   id="svg58"
   version="1.1"
   fill="none"
   viewBox="0 0 60 60"
   height="60"
   width="60">
  <metadata
     id="metadata64">
    <rdf:RDF>
      <cc:Work
         rdf:about="">
        <dc:format>image/svg+xml</dc:format>
        <dc:type
           rdf:resource="http://purl.org/dc/dcmitype/StillImage" />
        <dc:title />
      </cc:Work>
    </rdf:RDF>
  </metadata>
  <defs
     id="defs62" />
  <sodipodi:namedview
     inkscape:current-layer="layer2"
     inkscape:window-maximized="1"
     inkscape:window-y="23"
     inkscape:window-x="0"
     inkscape:cy="20.313176"
     inkscape:cx="-20.782768"
     inkscape:zoom="7.2796234"
     inkscape:snap-grids="true"
     fit-margin-bottom="0"
     fit-margin-right="0"
     fit-margin-left="0"
     fit-margin-top="0"
     showgrid="true"
     id="namedview60"
     inkscape:window-height="925"
     inkscape:window-width="1680"
     inkscape:pageshadow="2"
     inkscape:pageopacity="0"
     guidetolerance="10"
     gridtolerance="10"
     objecttolerance="10"
     borderopacity="1"
     bordercolor="#666666"
     pagecolor="#ffffff"
     inkscape:document-rotation="0">
    <inkscape:grid
       id="grid126"
       type="xygrid" />
  </sodipodi:namedview>
  <g
     style="display:none"
     inkscape:label="Layer 1"
     id="layer1"
     inkscape:groupmode="layer">
    <rect
       y="8.1644459"
       x="8"
       height="44"
       width="44"
       id="rect968"
       style="display:inline;fill:#ffaaaa;fill-opacity:1;stroke:none;stroke-width:3.59259" />
    <rect
       y="12"
       x="12"
       height="36"
       width="36"
       id="rect977"
       style="fill:#ffff00;fill-opacity:1;stroke:none;stroke-width:3.6" />
  </g>
  <g
     style="display:inline;opacity:1"
     inkscape:label="Layer 2"
     id="layer2"
     inkscape:groupmode="layer">
    <g
       transform="matrix(3.0857143,0,0,3.0857143,-0.3428572,10.752034)"
       id="g1056"
       style="fill:#ffffff">
      <path
         sodipodi:nodetypes="ccccccccc"
         style="fill:#ffffff"
         fill-rule="evenodd"
         clip-rule="evenodd"
         d="m 4.00008,5.7071 0.7071,-0.70711 3.53554,3.53554 -0.70711,0.7071 -3e-5,-2e-5 L 4.70711,12.0711 4,11.364 6.82848,8.5355 Z"
         fill="#424242"
         id="path1045" />
    </g>
    <text
       id="text1230"
       y="17"
       x="40"
       style="font-style:normal;font-weight:normal;font-size:40px;line-height:1.25;font-family:sans-serif;fill:#ffffff;fill-opacity:1;stroke:none"
       xml:space="preserve"><tspan
         y="17"
         x="40"
         id="tspan1228"
         sodipodi:role="line" /></text>
    <path
       id="path1045-5"
       fill="#424242"
       d="M 47.989267,44.91233 48,48 l -3.599936,-2.2e-5 -2.6e-5,-1.09e-4 -14.400047,4.3e-5 9e-6,-3.085706 c 5.996424,7.3e-5 11.992845,0.0012 17.989268,-0.0019 z"
       clip-rule="evenodd"
       fill-rule="evenodd"
       style="display:inline;opacity:1;fill:#ffffff;stroke-width:3.33292"
       sodipodi:nodetypes="ccccccc" />
    <g
       transform="matrix(1.1666667,0,0,1.1666667,31.666666,9.6666666)"
       id="g1343"
       style="fill:#ffffff;fill-opacity:1">
      <path
         style="fill:#ffffff;fill-opacity:1"
         fill-rule="evenodd"
         clip-rule="evenodd"
         d="M 5.56253,2.5158 C 3.46348,3.45013 2,5.55417 2,8.00002 2,11.3137 4.68629,14 8,14 11.3137,14 14,11.3137 14,8.00002 14,5.32522 12.2497,3.05922 9.83199,2.28485 L 9.52968,3.23835 C 11.5429,3.88457 13,5.77213 13,8.00002 13,10.7614 10.7614,13 8,13 5.23858,13 3,10.7614 3,8.00002 3,6.31107 3.83742,4.8177 5.11969,3.91248 Z"
         fill="#424242"
         id="path1329" />
      <path
         style="fill:#ffffff;fill-opacity:1"
         fill-rule="evenodd"
         clip-rule="evenodd"
         d="M 5,3 H 2 V 2 H 5.5 L 6,2.5 V 6 H 5 Z"
         fill="#424242"
         id="path1331" />
    </g>
  </g>
</svg>
